<svg width="415" height="345" viewBox="0 0 415 345" fill="none" xmlns="http://www.w3.org/2000/svg">
<g>
<path fill-rule="evenodd" clip-rule="evenodd" d="M522.302 344.231C522.498 343.45 522.473 342.615 523.21 342.083C524.958 341.224 525.481 343.259 527.258 343.738C528.015 339.612 531.828 338.679 535.075 336.468C539.289 339.09 544.411 335.286 549.137 337.981C550.636 336.834 552.775 337.713 554.259 336.678C545.153 350.256 539.963 365.076 539.968 381.574C539.973 388.795 542.57 395.573 543.849 402.545C545.475 411.348 547.888 419.99 549.855 428.765C551.896 437.954 556.32 445.62 563.688 451.572C565.822 453.295 567.896 455.175 568.897 457.757C567.789 462.274 565.748 463.29 562.458 460.292C553.386 452.04 543.923 444.072 538.581 432.559C537.32 429.847 535.719 427.306 533.816 425C531.178 421.95 529.045 418.499 527.497 414.776C524.436 407.125 518.303 401.265 515.3 393.351C511.287 392.892 509.178 390.792 507.83 386.603C510.994 388.048 512.263 391.3 515.715 390.436C519.929 397.94 525.222 404.59 529.079 412.227C533.321 420.652 538.851 428.363 545.47 435.083C546.252 435.864 547.145 436.533 548.692 437.866C548.037 432.632 546.688 427.509 544.68 422.632C542.839 418.35 541.037 414.049 537.419 410.733C533.967 407.574 533.43 402.837 531.769 398.697C529.841 393.907 530.509 388.414 527.38 383.644C523.025 383.194 524.773 378.741 523.21 376.222C520.974 372.599 521.389 368.131 521.257 364.142C521.037 357.526 520.725 350.798 522.302 344.231ZM315.77 324.305C317.078 322.108 318.431 322.532 319.554 322.571C322.542 322.689 325.521 322.992 328.509 323.089C332.761 323.231 336.897 322.933 340.989 321.351C353.552 316.6 365.627 319.564 377.546 324.198C385.67 327.352 393.712 330.833 402.042 333.353C407.813 335.101 414.111 334.612 420.078 335.931C431.117 338.357 440.493 344.08 449.32 350.759C456.732 356.364 463.988 362.224 469.691 369.705C469.867 369.939 470.253 370.012 470.916 370.363C471.741 364.275 475.394 359.851 478.807 355.266C480.257 353.318 480.008 350.461 482.469 348.908C484.362 347.657 486.396 346.633 488.528 345.857C495.354 343.474 502.034 340.671 508.762 338.035C509.831 337.62 510.862 336.912 511.965 336.863C519.289 336.375 526.096 333.953 532.981 331.776C537.921 330.117 543.236 329.924 548.283 331.219C557.941 333.768 567.359 332.786 576.885 329.295C575.765 328.177 546.729 318.085 532.892 314.511C534.767 312.587 537.091 314.218 539.445 313.339C533.415 311.098 527.726 311.483 522.004 312.87C513.041 314.96 504.472 318.48 496.628 323.294C486.409 329.676 477.928 337.279 476.927 350.515C476.659 354.006 475.882 357.732 473.475 360.735C473.114 360.451 472.782 360.275 472.806 360.202C475.13 352.888 475.692 345.09 478.899 337.977C480.638 334.11 482.987 330.609 486.653 328.534C490.433 326.395 492.893 323.269 495.266 319.842C499.016 314.471 502.849 309.134 508.103 305.053C509.421 304.018 510.588 302.714 512.653 302.592C506.916 308.085 501.082 313.48 497.483 320.907C502.717 316.873 509.021 315.033 514.876 311.708C514.358 305.488 518.376 303.324 523.488 301.552C530.25 299.174 537.18 297.148 542.79 292.075C547.882 287.461 554.215 286.509 560.914 288.286C562.911 288.818 564.952 289.189 566.934 289.775C570.469 290.819 573.897 290.946 577.622 288.744L579.331 286.45C578.013 285.737 577.334 286.874 576.48 287.202C571.773 288.979 567.5 288.75 563.726 285.102C562.1 283.477 560.416 281.899 558.678 280.385C556.764 278.706 554.923 277.471 551.915 278.174C549.728 278.691 547.149 277.978 544.84 277.134C534.577 273.413 528.429 275.528 522.829 285.005C519.944 289.844 517.297 294.814 513.249 298.862C512.708 299.404 512.39 300.248 511.423 300.238C511.33 300.048 511.116 299.756 511.165 299.697C516.511 293.637 519.719 286.113 524.748 279.853C529.435 274.004 536.837 272.012 543.951 274.595C546.144 275.39 548.297 276.166 550.651 275.883C554.63 275.4 557.803 277.129 560.704 279.501C562.036 280.59 563.233 281.855 564.507 283.012C569.419 287.455 573.316 288.1 578.32 283.915C587.495 276.255 597.861 270.146 606.474 261.787C615.875 252.824 623.966 242.581 630.507 231.359C634.711 224.03 638.538 216.491 640.467 208.117C641.476 203.554 641.051 198.791 639.251 194.479C641.302 194.245 641.649 195.559 642.103 196.648C643.568 200.173 643.558 203.815 642.831 207.492C642.289 210.185 642.233 212.953 642.664 215.666C643.172 219.005 641.39 222.106 639.891 225.05C638.596 227.327 638.008 229.938 638.201 232.55C638.865 240.548 636.566 247.858 632.528 254.825C628.864 261.067 625.668 267.572 622.968 274.287C617.48 287.86 581.349 295.292 584.521 295.566C590.009 298.291 596.206 298.803 601.84 301.078C602.577 301.376 603.529 301.342 604.111 301.806C609.701 306.312 615.937 305.351 622.236 304.111C624.242 303.615 626.288 303.288 628.349 303.134C644.774 302.704 660.491 298.608 676.126 294.057C679.612 293.042 682.316 291.137 683.952 287.802C684.377 286.938 684.602 285.796 685.89 285.6C686.74 286.704 685.93 287.592 685.524 288.447C681.384 297.001 675.471 303.383 666.243 307.006C659.583 309.633 653.279 313.319 646.859 316.625C640.985 319.657 634.744 321.395 628.495 323.338C622.587 325.174 616.737 327.049 610.624 328.113C600.551 329.866 590.376 330.658 580.239 331.81C577.393 332.127 574.443 332.44 571.792 333.421C564.346 336.18 556.812 335.706 549.362 334.104C542.389 332.6 535.675 332.615 529.147 335.589C523.937 337.966 518.391 338.621 512.591 338.816C515.071 345.261 513.02 351.082 511.599 356.917C510.984 359.485 509.773 361.926 509.29 364.47C508.648 367.38 507.394 370.122 505.613 372.512C500.018 380.539 501.414 389.054 504.451 397.521C506.136 402.203 509.075 406.197 511.804 410.323C519.035 421.255 526.613 431.919 534.728 442.202C535.45 443.101 536.013 444.116 536.393 445.205C538.346 451.064 541.994 455.609 546.818 459.437C549.308 461.41 551.744 463.867 550.656 468.608C545.314 459.604 537.507 454.619 529.006 448.911C529.494 452.329 530.5 454.409 532.218 456.098C535.827 459.638 539.489 463.124 543.082 466.718C544.547 468.182 545.934 469.726 545.724 472.582C540.753 470.883 538.4 466.234 534.323 463.905C530.246 461.576 525.973 459.15 521.872 457.002C521.101 456.016 522.546 455.839 522.229 454.985C521.957 454.497 521.546 454.101 521.049 453.848C520.552 453.594 519.99 453.493 519.436 453.559C513.625 454.487 509.245 451.181 504.87 448.349C497.415 443.452 488.992 441.865 480.487 440.81C474.667 440.088 469.633 437.993 464.765 435.156C465.507 433.311 467.362 434.131 468.236 432.525C464.252 431.675 460.815 433.11 457.69 434.673C445.625 440.83 433.775 447.397 423.619 456.557C422.919 457.323 422.06 457.927 421.104 458.329C412.833 460.741 405.23 465.072 396.739 466.708C387.526 468.48 378.014 468.969 369.636 473.949C367.453 475.243 365.348 476.605 363.312 478.104C362.15 478.963 361.022 479.974 358.566 479.501C364.733 474.125 379.742 452.368 383.927 445.888C385.812 443.027 388.087 440.801 391.398 439.59C397.462 437.373 401.842 432.573 407.11 429.131C419.585 420.992 433.125 418.096 447.812 421.426C451.959 422.37 456.103 423.311 460.243 424.248C462.006 424.654 463.739 425.127 465.023 426.86C458.505 425.566 451.972 424.288 445.463 422.925C439.502 421.751 433.363 421.811 427.426 423.101C417.661 425.054 409.317 429.297 401.71 435.469C398.486 438.075 394.923 440.232 391.119 441.88C387.325 443.525 386.349 447.627 383.791 450.498C386.896 448.603 390.094 446.831 393.097 444.785C399.586 440.366 406.875 438.057 414.438 436.519C424.804 434.404 435.498 435.429 445.844 433.178C450.308 432.085 454.849 431.335 459.427 430.933C461.199 430.821 463.012 430.611 464.32 428.863C465.106 427.803 466.556 427.886 467.85 428.008C478.675 429.067 489.554 429.995 500.398 431.152C504.436 431.587 507.766 434.243 511.428 435.434C512.697 435.141 513.552 434.629 513.782 433.169C512.664 431.074 510.613 429.883 508.318 429.102C503.094 427.271 498.445 424.095 494.841 419.893C488.552 412.862 482.337 405.816 477.957 397.374C477.215 395.949 476.137 394.577 475.795 393.083C474.603 387.341 470.58 384.03 466.259 380.617C453.73 370.686 439.053 364.856 424.947 357.947C409.464 350.364 394.005 342.757 379.093 334.066C373.498 330.805 367.302 328.983 361.096 327.581C346.189 326.297 331.248 325.203 315.77 324.305ZM523.112 438.085C524.44 445.146 525.446 446.133 535.661 450.302L535.67 450.312C534.225 443.252 529.709 439.555 523.112 438.085ZM494.973 433.531C501.53 434.785 506.135 439.995 511.989 441.904C518.376 444.004 520.905 451.103 527.706 452.231C522.878 447.568 523.703 439.077 516.687 436.026L513.254 438.052C509.7 437.212 506.599 436.445 503.889 434.546C501.106 432.554 498.127 432.115 494.973 433.531ZM676.023 296.97C672.683 298.288 668.312 298.091 666.355 302.821C670.873 302.324 673.337 299.522 676.023 296.97ZM609.531 312.743C610.444 313.588 611.801 314.115 612.167 315.936L612.177 315.946C617.767 312.171 624.003 310.907 628.612 306.678C621.937 305.746 615.698 308.851 609.086 307.416L609.531 312.743ZM169.417 329.09C176.384 335.472 185.202 336.82 194.045 338.924C194.777 336.795 196.554 336.102 198.409 335.536C206.7 332.86 214.689 329.286 223.302 327.538C234.151 325.331 244.727 326.502 255.356 329.007C265.024 331.263 274.204 334.916 283.52 338.129C290.346 340.482 297.352 341.394 304.354 342.605C305.665 342.792 306.934 343.205 308.103 343.826C300.858 343.006 293.451 343.743 286.425 341.092C280.507 338.875 274.125 338.167 268.222 336.131C259.217 333.105 249.893 331.128 240.435 330.238C231.856 329.335 223.521 330.853 215.289 333.128L197.111 338.162L196.97 339.378C213.395 340.238 229.312 344.046 244.727 347.567C246.568 345.96 244.395 345.584 244.961 344.675C253.311 339.461 283.27 339.706 289.828 345.209C292.416 344.173 294.589 346.111 297.035 346.556C307.313 348.426 318.123 350.604 327.962 346.878C338.215 342.972 347.429 345.682 357.14 347.259C365.539 348.626 373.078 352.561 381.036 355.188C384.298 356.262 387.423 358.84 390.641 360.291C394.142 361.838 398.467 361.936 402.432 361.917C414.487 361.853 426.137 364.226 437.353 368.186C443.397 370.325 448.788 374.328 454.603 377.146C458.9 379.235 462.713 381.828 465.809 385.675C455.624 381.408 445.194 377.903 434.262 376.374C423.608 374.88 413.144 370.979 402.075 373.298C412.793 375.5 423.525 377.355 433.974 380.578C429.57 380.802 425.288 379.968 421.093 378.938C413.408 377.048 405.506 376.186 397.593 376.374C392.877 376.482 388.194 375.481 383.634 374.71C377.023 373.587 370.372 373.938 363.781 373.01C357.189 372.082 350.636 371.038 344.333 368.738C339.861 367.095 335.109 366.352 330.35 366.55C340.334 367.19 348.923 372.614 358.619 374.48C364.415 375.598 370.236 377.824 376.051 377.663C385.773 377.385 395.118 379.69 404.624 380.661C411.46 381.355 418.467 382.033 425.097 384.376C426.43 384.85 428.047 384.552 429.531 384.562C439.477 384.577 449.12 386.573 458.778 388.732C462.161 389.498 465.15 391.295 468.26 392.746C469.768 393.444 470.214 394.562 469.882 396.652C465.509 396.976 461.114 396.872 456.762 396.344C445.219 395.006 433.632 393.488 422.08 395.49C398.365 399.586 373.463 402.224 349.289 398.606C336.792 396.777 324.623 393.159 313.157 387.863C300.296 381.838 286.576 376.828 274.042 370.115C264.443 364.978 255.376 358.831 245.103 354.905C240.245 353.045 235.015 352.629 230.274 350.535C220.226 346.043 209.332 345.628 198.737 343.734C189.064 342.01 179.665 339.486 171.887 332.987C170.769 332.054 169.519 331.175 169.417 329.09ZM392.911 338.548C394.488 340.564 396.046 341.019 397.408 341.697C407.383 346.643 417.383 351.536 427.373 356.457C439.105 362.234 451.4 366.931 462.098 374.67C465.135 376.867 468.187 379.098 472.04 381.896L472.049 381.906C471.361 378.21 471.859 375.261 469.554 373.005C459.921 363.596 449.779 354.851 438.041 348.084C431.181 344.153 424.013 341.048 416.133 340.374C408.653 339.73 401.04 341.15 392.911 338.548ZM49.0842 19.9243C52.1358 15.5934 55.7778 11.775 61.212 10.6373C66.3924 9.55823 71.4659 8.19628 76.6365 7.01958C81.8073 5.84285 87.1497 5.9595 91.9885 8.86468C93.349 9.75329 94.9285 10.2487 96.5529 10.2955C99.4141 10.2271 101.968 11.023 105.166 12.7172C102.647 8.40106 102.695 4.05571 100.532 0.193647C98.8186 -2.86779 99.5859 -6.96476 101.016 -10.3777C101.822 -12.3159 103.745 -12.2281 105.513 -11.6228C108.852 -10.49 112.466 -9.78672 114.795 -6.47139C114.648 -10.2309 116.137 -13.0191 119.023 -15.5043C117.607 -19.7325 120.522 -22.1011 123.725 -24.2982C122.211 -26.3487 120.034 -25.148 117.91 -26.2075C121.44 -28.2436 124.648 -28.5314 127.988 -27.2717C136.015 -24.2249 143.212 -19.7137 147.855 -12.4535C154.33 -2.32682 161.888 6.83379 169.95 15.6568C171.236 17.1264 172.445 18.6615 173.572 20.2557C176.473 24.1912 179.666 27.6879 184.358 29.6166C186.252 30.4637 187.995 31.6129 189.519 33.0196C194.622 37.4773 200.246 41.2176 205.632 45.2261C212.136 50.1119 216.755 57.0932 218.708 64.9906C219.469 67.9983 220.03 71.0604 221.373 73.8874C224.156 79.7173 222.677 85.6107 221.554 91.4601C220.968 94.2602 220.86 97.1395 221.232 99.9758C222.111 106.372 219.85 112.265 217.389 117.958C216.277 120.342 215.308 122.791 214.489 125.291C213.679 128.006 212.595 130.781 209.651 132.084C208.132 132.753 207.839 134.354 207.131 135.492C205.725 136.263 204.738 135.814 204.162 134.613C200.71 127.441 193.616 123.871 188.211 118.662C181.068 111.792 172.132 107.212 164.354 101.103C163.096 99.9851 161.456 99.394 159.774 99.4531C175.237 112.133 192.459 122.294 204.827 138.305C207.546 138.358 210.08 137.699 211.457 134.857C212.053 134.76 212.565 134.501 212.931 134.643C225.27 139.267 238.322 142.22 249.86 148.661C264.195 156.658 278.917 163.968 292.93 172.581C305.717 180.486 319.247 187.228 331.346 196.251C344.153 205.787 357.297 214.957 369.362 225.372C378.039 232.867 386.633 240.455 395.641 247.559C397.414 248.85 398.928 250.464 400.104 252.315C405.582 261.992 414.474 268.686 421.549 276.952C428.951 285.585 436.563 294.037 443.408 303.129C444.906 305.126 446.709 306.876 448.749 308.314C452.417 310.868 455.335 314.356 457.202 318.417C454.966 318.7 454.385 317.327 453.491 316.444C445.367 308.319 438.789 298.812 430.499 290.834C429.958 290.248 429.488 289.6 429.097 288.905C427.022 285.59 424.791 282.646 420.895 280.985C416.866 279.272 414.4 275.283 410.86 272.466C410.621 274.336 411.891 275.156 412.706 276.177C423.555 289.848 434.209 303.636 445.967 316.605C452.031 323.294 457.983 329.764 465.527 334.71C466.102 335.082 466.701 335.416 467.318 335.711C467.499 335.804 467.753 335.726 468.657 335.721C462.129 327.24 458.281 317.62 452.906 308.856C459.736 318.509 467.636 327.493 471.425 339.094C471.119 333.861 469.781 328.74 467.489 324.026C466.127 321.112 464.492 318.324 463.208 315.38C459.853 307.699 454.688 301.205 449.488 294.823C440.152 283.271 431.705 271.093 423.307 258.877C409.259 238.492 397.282 216.896 386.344 194.699C383.586 189.109 381.472 183.215 378.323 177.78C381.076 179.431 382.155 182.18 383.385 184.798C393.502 206.597 405.127 227.665 418.175 247.847C430.211 266.35 443.26 284.175 457.26 301.24C460.702 305.463 462.787 310.487 465.121 315.35C465.638 316.693 466.432 317.912 467.45 318.929C467.284 317.447 467 315.981 466.601 314.544C464.002 307.366 463.398 299.617 464.853 292.123C465.571 288.476 465.41 285.102 463.354 281.904C462.509 280.523 462.009 278.959 461.899 277.344C461.355 271.5 460.249 265.723 458.594 260.093C455.942 251.026 456.201 241.724 456.015 232.398C455.739 219.473 458.718 206.685 464.677 195.211C466.102 192.578 467.946 190.194 470.136 188.152C475.985 182.381 478.759 174.646 483.231 168.045C486.429 163.285 489.51 158.425 492.386 153.46C499.715 140.799 511.263 132.63 522.869 124.51C528.138 120.796 533.926 117.877 540.046 115.849C541.715 115.302 543.41 114.516 545.251 115.194C545.099 116.693 543.981 116.64 543.19 116.914C526.941 122.509 513.704 132.65 501.556 144.437C498.475 147.43 496.483 151.239 494.218 154.833C489.755 161.922 485.316 169.026 481.312 175.403C480.892 183.254 481.547 190.285 480.062 197.316C478.441 205.021 479.901 212.682 481.903 220.085C483.155 224.504 483.359 229.155 482.499 233.668C481.41 239.415 480.072 245.177 477.148 250.338C470.869 261.441 469.335 273.774 467.626 286.068C467.417 287.548 467.387 289.052 467.089 290.511C465.642 297.517 465.9 304.768 467.841 311.653C469.99 319.27 470.975 327.2 473.431 334.764C474.432 337.825 475.014 340.994 474.135 344.441C471.317 343.646 470.287 340.838 467.714 339.456C464.672 340.701 461.743 339.343 459.184 337.381C450.84 331.077 442.378 324.979 432.369 321.454C430.718 320.929 429.204 320.044 427.935 318.865C420.543 311.239 410.484 307.997 401.627 302.851C389.416 295.756 377.312 288.3 363.987 283.422C344.237 276.172 324.359 269.282 303.373 266.343C293.637 264.985 283.886 265.508 274.131 265.986C254.385 266.963 234.923 264.746 215.647 260.664C212.392 259.93 209.24 258.799 206.262 257.295C194.681 251.573 181.981 248.638 170.35 243.199C161.381 239.014 151.903 236.255 142.885 232.276C138.759 230.455 125.542 221.974 125.239 219.279C128.574 219.567 143.178 225.753 148.358 227.525C157.41 230.64 166.897 230.284 176.228 231.363C193.293 233.331 210.407 232.828 227.501 233.399C230.928 233.517 234.381 232.75 237.809 232.857C248.947 233.186 260.009 234.83 270.762 237.755C277.5 239.61 284.423 240.869 291.288 242.266C293.202 242.656 295.161 242.681 295.932 244.351C315.629 243.735 334.857 243.648 353.88 247.925C362.184 249.845 370.039 253.35 377.014 258.248C381.183 261.098 385.529 263.68 390.026 265.977C396.935 269.546 401.661 275.259 405.65 281.601C410.367 289.081 414.659 296.83 419.4 304.295C422.745 309.593 427.32 313.827 432.442 317.415C433.53 318.172 435.093 318.972 436.255 318.758C439.808 318.034 443.501 318.523 446.743 320.145C430.815 303.655 416.594 285.596 404.298 266.245C393.242 254.676 381.505 243.774 369.153 233.6C359.183 225.475 348.841 217.78 338.7 209.894C334.339 206.511 329.046 204.811 324.462 201.828C314.359 195.242 304.296 188.586 293.833 182.566C283.487 176.604 272.93 170.998 263.077 164.202C262.988 164.127 262.885 164.071 262.774 164.036C253.946 162.503 247.164 156.092 238.404 154.1C228.849 151.937 220.338 146.776 211.413 142.83C206.613 140.726 201.765 141.737 197.082 141.107C196.938 141.425 196.909 141.782 197.001 142.118C197.093 142.455 197.3 142.748 197.586 142.948C187.952 150.97 177.229 156.625 163.851 157.758C165.955 159.5 167.621 159.046 169.252 158.733C175.721 157.488 181.741 154.778 187.674 152.176C191.834 150.291 196.501 148.124 197.664 142.821C199.841 144.784 198.479 146.566 197.229 148.138C193.802 152.337 189.973 156.214 185.383 159.094C179.778 162.62 175.238 167.366 170.267 171.604C164.101 176.853 157.03 179.314 149.091 179.724C143.944 179.988 138.735 180.11 133.593 180.193C131.866 180.135 130.142 180.398 128.511 180.969C117.032 185.788 105.249 184.348 93.5408 182.454C87.2129 181.429 80.6993 181.33 74.5863 179.123C72.6039 178.411 70.6109 177.707 70.4742 175.061C61.749 172.195 53.1456 169.138 43.8589 170.379C27.712 172.541 4.95397 159.48 0.2959 139.345C0.0957177 138.471 -0.338437 137.606 0.47682 136.801C1.89275 136.967 1.16533 138.7 2.34679 139.09C2.54073 138.864 2.69175 138.605 2.79149 138.324C3.46044 133.368 8.10341 130.336 12.488 132.533C18.0103 135.292 23.8358 136.068 29.8073 136.424C34.3935 136.691 38.96 137.228 43.4833 138.031C40.9785 135.731 36.9456 136.639 34.0941 133.095C43.2978 135.336 51.9449 136.151 60.1086 139.364C54.6839 135.355 46.6861 135.345 43.6345 128.573C41.1103 127.26 38.4688 127.743 36.0911 126.117C37.2532 123.432 39.3821 121.85 42.0773 122.084C47.9121 122.645 53.3513 120.956 58.9809 120.199C66.6565 119.164 74.5618 118.798 82.3155 121.484C89.4343 123.945 96.0018 126.957 101.939 131.781C106.055 135.116 110.806 138.539 117.334 136.649C115.972 132.494 112.539 130.233 109.722 127.582C107.698 125.714 105.339 124.246 102.769 123.256C99.1674 121.706 95.8363 119.591 92.9013 116.991C83.3753 108.94 72.5303 109.316 61.3978 111.855C54.5915 113.408 48.1171 116.347 40.8958 116.049C38.1812 115.942 35.8911 117.372 33.5865 118.964C34.9488 120.326 36.3109 118.759 38.3664 119.838C33.264 120.663 30.5539 124.721 25.7103 125.238C20.8668 125.756 15.5738 125.609 11.4529 129.339C12.5807 126.708 13.6897 125.776 16.2921 125.204C18.5332 124.702 20.7987 124.262 23.069 123.955C26.8091 123.447 29.9385 122.592 31.9306 118.617C33.5077 115.468 37.1707 113.935 40.6569 113.798C49.5333 113.515 57.6139 110.19 66.505 107.832C62.8967 104.898 60.1628 101.752 58.9568 97.9097C57.5848 97.1334 56.6519 97.7545 55.6753 97.9498C55.6662 99.2087 57.4041 99.0723 57.4189 100.249C54.4454 101.181 51.4767 99.8631 49.2941 96.4893C47.6653 93.8385 46.434 90.9628 45.6412 87.9543C43.5661 80.7426 40.4903 73.9359 37.3361 67.1685C35.8665 64.0193 35.4959 61.0411 37.776 58.1067C38.1286 57.6705 38.3254 57.1288 38.3367 56.5681C38.0048 49.0882 42.4143 45.0215 49.1229 42.0821C41.5353 34.5532 47.5554 28.2883 50.651 21.5698C51.7301 21.4673 52.6384 21.3302 53.5368 21.3302C60.8704 21.3107 67.6282 19.8851 73.0381 14.3385C75.2988 12.0193 78.2675 13.1809 80.8943 13.8351C83.5592 14.5988 86.0346 15.9129 88.1601 17.6925C89.5964 18.867 91.3237 19.6318 93.1589 19.9042C94.9941 20.1767 96.8689 19.9472 98.5844 19.2406C105.308 16.6968 111.68 18.401 118.144 20.1881C119.461 20.6062 120.812 20.9077 122.182 21.0906C119.858 19.665 117.437 18.4347 116.255 16.1401C115.113 15.5934 114.219 15.9104 113.311 15.9496C109.936 16.0536 106.58 15.4069 103.487 14.0554C96.8022 11.4139 89.8786 8.48418 82.5302 8.55739C74.801 8.6404 67.4622 11.5059 59.9283 13.0245C57.0134 13.6055 54.7281 15.8525 52.5065 17.8886C51.5448 18.7723 50.822 20.1096 49.0842 19.9243ZM262.891 40.2888C265.054 30.05 271.172 22.5943 279.956 17.1014C283.139 15.1093 286.469 13.1067 288.476 9.78171C291.098 5.46085 295.565 3.34682 299.32 0.412548C300.537 -0.392496 301.604 -1.40607 302.469 -2.58092C304.296 -5.44209 306.747 -6.2911 310.321 -6.22279C316.512 -6.09584 320.399 -3.68383 324.676 1.01331C329.715 6.55005 329.92 12.0087 328.885 19.0687C317.504 28.5948 313.241 42.6133 309.125 57.1392C313.17 57.7476 317.063 59.1215 320.595 61.1871C323.055 62.5637 325.916 62.1439 328.66 61.3432C331.087 60.6352 333.528 59.5417 336.141 60.6989C332.655 60.8552 329.676 62.7981 326.293 63.3402C324.885 63.6314 323.431 63.6331 322.023 63.3444C320.614 63.0556 319.279 62.4826 318.099 61.6608C313.91 58.7313 309.593 58.3791 305.267 61.328C303.72 62.3776 301.962 62.0955 300.673 62.359C296.909 64.2876 296.508 69.1799 292.27 70.3029C288.027 68.0129 284.16 63.4723 278.652 65.9525C274.097 67.9983 270.093 71.0651 267.861 75.9038C271.46 73.5845 273.945 69.7118 278.32 68.5399C279.155 68.3887 280.001 68.3042 280.849 68.2865C282.309 71.4257 286.064 70.7374 288.188 72.9L291.059 71.7385C293.131 72.998 294.745 74.8867 295.668 77.1288C298.131 83.0592 300.093 89.1857 301.532 95.4438C302.439 99.4708 304.078 103.297 306.366 106.733C302.167 95.5904 301.537 83.3491 295.81 72.534C296.611 66.4993 301.957 62.7547 308.07 64.2876C310.304 64.8311 312.465 65.6403 314.505 66.699C317.977 68.53 321.37 68.76 324.573 66.5042C327.991 64.0629 331.82 63.8577 335.76 64.1067C337.129 64.2654 338.516 64.0638 339.783 63.5211C342.268 64.9419 344.763 66.089 347.59 66.2501C349.231 66.338 350.154 67.5932 351.263 68.5551C355.984 72.6223 359.705 77.5537 362.962 82.7829C366.541 88.5296 371.179 93.1783 376.398 97.3822C381.329 101.337 383.761 106.777 384.772 112.905C385.558 117.665 386.456 122.401 386.964 127.206C387.345 130.511 388.259 133.733 389.669 136.746L390.269 138.314L389.718 136.737C389.909 132.23 388.62 127.895 388.087 123.466C387.365 117.353 385.568 111.338 386.32 105.019C386.774 101.187 384.313 98.3251 380.891 96.7773C374.592 93.9063 370.574 88.8139 368.352 82.3934C365.935 75.4064 362.038 69.9963 355.467 66.0609C351.248 63.5317 346.936 60.7825 343.337 57.1938C342.431 56.2967 341.228 55.7631 339.954 55.6946C334.642 55.8899 329.285 55.7677 323.875 57.5059C322.44 57.2324 322.543 55.763 322.313 54.5863C321.626 50.4908 321.799 46.297 322.821 42.272C323.426 39.7136 324.158 37.1649 323.928 34.4648C323.782 32.8341 324.833 31.7544 325.848 30.5923C328.319 27.7997 331.487 25.4906 332.117 21.7362C333.421 20.2764 334.93 21.0622 336.199 20.7108C336.875 20.5622 337.512 20.2736 338.069 19.8642C338.627 19.4547 339.093 18.9328 339.436 18.3326C337.674 15.3884 336.321 14.8949 331.761 15.5394C334.344 12.2634 336.697 12.4489 340.809 16.1401C341.59 19.6751 338.221 23.0442 340.159 26.7599C341.98 26.3741 342.19 24.7288 343.089 23.928C351.091 20.9838 357.932 23.9964 364.616 27.7901C371.149 31.501 375.7 36.8429 379.953 43.1269C384.799 50.4292 388.979 58.1522 392.443 66.2025C397.472 77.6865 399.157 89.7615 400.26 102.027C400.293 103.521 400.607 104.995 401.187 106.372C401.222 103.946 401.452 101.499 401.261 99.0919C399.934 82.796 395.521 66.9006 388.258 52.2523C386.534 48.7223 384.513 45.4217 381.501 42.7803C379.03 40.6026 378.053 37.3798 376.325 34.6748C370.739 26.0424 362.791 20.2805 353.563 15.5932L342.659 14.7784L342.64 13.7039C346.126 12.083 350.11 12.7271 353.738 11.7359C354.787 11.0181 353.753 9.3776 355.446 8.56223C356.656 9.6455 358.088 10.4511 359.641 10.9218C361.195 11.3925 362.834 11.5165 364.441 11.2864C363.689 10.4564 363.049 9.74874 362.395 9.03594C364.348 6.10632 367.561 5.41292 369.085 8.07886C372.605 14.3236 378.268 17.7413 383.815 21.5595C385.923 23.0381 387.412 25.2434 387.995 27.7515C389.504 34.0548 392.809 39.4013 396.046 44.8063C400.206 51.7982 402.882 59.4543 406.446 67.6961C406.616 63.9796 406.044 60.2665 404.762 56.7739C403.839 54.0684 403.633 51.1702 404.162 48.3612C405.124 42.6288 403.88 36.7445 400.68 31.8919C398.959 29.171 397.485 26.3015 396.276 23.3182C393.981 17.6544 390.612 12.9176 385.407 9.45095C382.355 7.37586 380.217 4.26083 378.224 1.15556C377.784 0.414846 377.158 -0.198995 376.41 -0.626015C375.661 -1.05305 374.814 -1.2792 373.952 -1.28133C369.246 -1.49526 364.714 -2.65801 360.211 -3.94058C362.616 -6.15096 365.5 -5.43879 368.245 -5.14349C371.013 -4.84564 373.557 -4.31382 376.657 -3.79142C373.893 -9.99217 370.647 -15.1141 365.662 -19.0543C366.46 -21.238 365.68 -23.5129 366.934 -25.4362C365.08 -27.096 365.535 -28.8589 366.584 -30.5821C370.988 -33.5117 382.512 -29.9665 385.505 -25.0302C391.169 -15.6751 399.02 -7.95049 404.728 1.36065C406.371 3.9838 407.759 6.7585 408.873 9.64637C411.309 16.0864 414.151 22.2675 418.199 27.9752C423.081 34.8108 424.175 42.8481 422.954 51.0508C421.958 57.7498 420.523 64.3812 419.19 71.0266C418.14 76.2362 418.385 81.5192 418.028 86.768C417.335 97.0313 418.746 107.456 416.202 117.568C413.458 128.495 406.632 136.367 397.794 141.991C395.856 142.231 396.06 140.677 395.006 140.335L392.512 141.493C391.037 140.78 391.139 139.243 390.275 138.329L390.274 138.33C390.655 143.417 389.757 148.387 388.829 153.338C387.584 159.983 380.358 166.799 373.712 167.741C372.687 167.888 371.628 168.03 371.076 166.472C377.975 164.368 384.42 161.613 386.779 153.855C382.253 159.904 376.134 163.288 368.893 164.455C368.517 166.608 369.172 167.732 370.837 168.635C371.505 168.962 372.1 169.422 372.584 169.987C373.069 170.552 373.433 171.211 373.654 171.921C377.282 183.869 382.795 195.006 388.273 206.188C390.08 209.947 390.988 213.981 392.682 217.735C399.171 232.095 409.068 244.248 418.111 256.962C423.838 265.014 429.199 273.324 435.615 280.863C439.042 284.896 442.476 288.915 444.976 293.622C446.102 295.577 446.802 297.749 447.031 299.994C445.346 298.993 444.951 297.611 444.37 296.415C443.153 293.806 441.597 291.368 439.745 289.163C426.489 273.856 415.45 256.88 403.316 240.723C390.504 223.654 379.972 205.241 370.817 186.008C368.683 181.531 367.868 176.594 366.423 171.848C365.895 170.11 365.564 168.274 364.294 166.731C362.087 166.419 359.597 169.054 357.912 166.208C357.396 166.181 356.881 166.272 356.404 166.471C355.928 166.671 355.502 166.975 355.159 167.361C349.168 174.192 341.272 174.656 333.304 173.064C323.538 171.111 314.803 167.151 308.314 158.992C305.458 155.393 301.522 152.844 297.612 150.379C291.593 146.586 285.591 142.758 279.604 138.894C276.233 136.643 273.585 133.463 271.982 129.739C270.031 125.711 267.851 121.797 265.454 118.017C259.321 107.792 259.459 96.4935 260.577 85.2585C260.977 80.952 264.414 77.5145 266.602 73.7548C267.383 72.3976 268.735 71.289 268.383 69.5509C267.675 68.3748 266.836 70.3463 265.948 69.2533C263.746 59.7955 260.781 50.2787 262.891 40.2888ZM478.915 178.826C476.679 182.761 474.784 186.921 471.826 190.495C464.648 199.176 461.43 209.591 460.063 220.518C457.959 237.359 460.005 253.956 463.974 270.376C464.75 273.524 465.135 276.779 465.799 280.604C466.856 279.102 466.538 278.072 466.616 277.11C467.158 270.581 467.538 263.931 470.273 257.915C472.685 252.574 472.489 247.349 471.859 241.797C471.298 236.861 469.452 232.183 469.154 227.267C468.534 217.077 471.86 207.511 475.068 198.122C477.06 192.302 477.9 186.306 479.706 180.525C479.862 180.037 480.189 179.124 478.915 178.826ZM209.255 255.601C209.875 255.82 210.495 256.02 211.11 256.255C219.806 259.609 229.127 259.722 238.141 261.294C243.448 262.227 248.707 263.501 254.17 263.389C265.644 263.144 277.125 263.056 288.612 263.125C316.986 263.237 343.153 273.036 369.104 283.07C383.722 288.734 396.705 297.675 410.421 305.14C413.233 306.664 416.075 308.138 418.907 309.642C414.112 302.064 409.371 294.765 405.084 287.138C401.971 281.612 397.786 276.763 392.775 272.876C387.838 269.023 382.458 266.533 376.057 266.401C367.566 266.221 359.089 266.035 350.613 265.478C347.434 265.229 344.1 265.908 341.063 264.893C339.041 264.219 336.942 263.154 334.994 263.569C330.785 264.457 326.82 263.042 322.782 262.744C314.257 262.119 307.031 257.363 299.35 254.106C298.649 253.871 298.021 253.457 297.528 252.906C297.035 252.354 296.694 251.685 296.538 250.962C296.831 248.716 299.862 248.672 300.39 245.557C297.87 248.135 295.498 245.978 293.198 246.978C283.213 251.309 272.134 251.216 261.9 254.478C258.199 255.659 254.981 253.281 251.436 254.258C242.452 256.718 233.249 255.845 224.094 255.889C219.192 255.879 214.377 254.287 209.255 255.601ZM171.78 375.28C174.909 375.08 177.205 376.457 179.583 375.671C181.57 370.979 201.432 369.015 205.529 364.997C209.679 360.846 214.23 357.536 219.786 355.681C222.213 354.865 223.888 352.429 226.837 352.233C227.418 355.129 225.533 356.32 223.858 357.282C221.261 358.749 218.564 360.034 215.787 361.125C213.117 362.195 211.374 364.123 209.206 367.004C214.333 365.52 218.927 364.821 222.916 362.883C228.565 360.163 233.643 360.729 238.931 363.273C240.42 363.991 240.86 365.094 240.684 367.047C230.567 373.824 218.903 377.218 206.882 380.06C210.325 380.523 225.034 379.259 228.15 378.322C237.115 375.519 245.635 371.393 255.601 369.289C251.099 367.189 246.948 368.273 242.329 368.263C247.173 364.914 265.992 366.35 270.498 369.909C270.352 370.055 270.239 370.382 270.122 370.372C257.032 369.713 245.059 374.244 233.204 378.766C226.339 381.383 219.391 381.72 212.306 382.087C204.309 382.477 175.022 379.059 171.78 375.28ZM214.953 235.88C222.513 236.84 229.945 238.635 237.11 241.231C244.454 243.809 252.252 244.37 260.552 246.265C264.394 245.645 267.671 246.294 270.093 248.55L267.519 250.603C276.347 249.425 285.144 248.113 293.388 244.414C284.19 242.993 275.079 241.054 266.099 238.609C256.641 236.172 246.949 234.478 237.145 234.859C231.637 235.074 226.169 235.416 220.652 235.064C218.82 234.942 216.754 234.488 214.953 235.88ZM402.975 123.793C404.664 119.965 404.171 115.986 404.332 112.055L403.448 112.071L402.975 123.793ZM261.836 249.619C261.455 251.113 260.225 251.866 259.576 253.394L267.324 250.653C265.612 250.328 263.893 250.011 261.836 249.619ZM311.21 116.596C321.679 133.724 331.068 151.746 349.924 161.745L349.915 161.736C332.005 150.935 322.743 132.796 311.21 116.596ZM364.035 120.487C364.336 123.674 365.335 126.757 366.96 129.515C366.804 126.263 365.408 123.421 364.07 120.521L364.035 120.487ZM372.487 -28.4683C370.091 -28.4829 368.443 -27.1328 366.973 -25.477C367.987 -24.4775 369.18 -26.092 370.475 -25.0889C371.154 -24.3516 372.448 -23.8585 373.141 -22.5304C375.182 -18.6342 377.829 -15.2459 382.057 -13.4686C383.816 -12.6421 385.482 -11.6302 387.027 -10.4509C392.774 -6.43253 395.944 -0.314811 400.055 5.01703C401.998 7.5365 404.562 9.69994 405.514 12.8981C408.477 22.8734 409.113 33.1662 409.874 43.4784C410.206 47.9508 411.319 52.4719 415.704 55.2258C417.53 53.966 417.935 51.598 419.962 51.0853C420.562 43.5807 418.96 33.7369 415.933 29.821C412.071 24.8359 409.586 19.1771 407.091 13.5085C405.274 9.39731 402.838 5.63216 400.836 1.64791C397.096 -5.80278 389.899 -10.3928 385.753 -17.4481C385.158 -18.3034 384.337 -18.9764 383.381 -19.3913C380.842 -20.6119 378.679 -22.2082 377.375 -24.7616L373.693 -25.5142C372.444 -26.4615 373.82 -27.8873 372.487 -28.4683ZM184.134 234.239C190.034 236.077 195.944 237.758 202.16 236.581C196.329 234.144 190.14 235.128 184.134 234.239ZM179.002 242.905C181.663 245.215 185.036 245.66 188.239 246.363C185.587 244.305 182.384 243.079 179.036 242.842L179.002 242.905ZM348.069 58.3318C352.644 61.6373 356.311 66.2019 361.96 67.779C356.78 65.3913 353.45 60.3044 348.069 58.3318ZM311.756 110.981C311.19 108.022 310.199 105.272 308.045 103.197L308.036 103.187L311.756 110.981ZM332.287 -10.0946C333.694 -11.3933 335.305 -11.1585 336.726 -10.6263C340.534 -9.23974 344.294 -9.31799 348.254 -9.98689C353.625 -10.8958 357.547 -8.66364 360.054 -3.90881C353.262 -1.39365 350.005 3.92655 348.815 10.6138C346.511 11.3948 344.695 10.3983 342.844 9.99302C341.248 9.97836 339.992 11.6921 337.824 10.6863C336.384 8.06442 336.116 5.07122 338.108 2.33707C340.842 -1.37362 347.975 -3.41938 351.999 -1.8669C353.696 -2.39971 355.13 -3.55657 356.008 -5.10413C353.752 -7.35979 351.311 -7.91621 348.269 -6.90573C342.522 -5.00638 337.404 -6.05176 332.287 -10.0946ZM360.211 -3.94058C360.191 -3.92169 360.17 -3.90327 360.149 -3.88395L360.154 -3.95646C360.173 -3.95103 360.192 -3.94601 360.211 -3.94058ZM360.09 -3.92262V-3.8439C360.078 -3.86572 360.065 -3.8871 360.054 -3.90881C360.066 -3.91323 360.078 -3.91822 360.09 -3.92262ZM286.435 15.3875C285.342 15.9466 284.44 16.8173 283.841 17.8886C283.242 18.9599 282.975 20.1848 283.071 21.4082C284.33 21.9548 285.541 21.0466 286.615 21.8274C287.773 25.338 287.113 28.2828 283.964 30.524C282.859 31.3634 282.001 32.4852 281.479 33.7709C281.426 33.9453 281.392 34.1259 281.381 34.3081C282.057 34.07 282.475 33.2965 283.697 33.8807C282.42 36.4772 281.747 39.3295 281.728 42.223C281.635 49.376 281.669 56.5874 276.645 62.5295C276.557 62.6175 276.753 62.9399 276.924 63.5791C280.039 62.7883 283.271 63.3646 287.695 63.5501C284.97 59.6831 286.733 55.8401 285.419 52.4857C283.911 48.7018 284.34 45.3227 286.191 41.9489C287.895 38.8289 289.667 35.7479 291.39 32.6377C292.23 31.1143 292.866 29.5909 292.226 27.7404C290.751 23.4437 288.539 19.5133 286.435 15.3875ZM297.133 5.06053C292.851 6.13961 291.157 9.6019 288.974 13.0051L288.959 12.9899C289.325 14.2545 288.96 15.6463 290.366 16.3494C291.552 15.3093 290.278 13.3316 292.358 12.5894C293.632 14.977 296.049 16.2029 298.261 17.7311C299.301 18.4489 299.916 19.875 300.546 21.0713C303.934 27.5358 304.179 34.1271 301.596 40.9676C300.942 42.6961 300.297 44.9034 302.323 46.5782C302.834 46.3732 303.294 46.0572 303.668 45.6529C304.042 45.2484 304.322 44.7652 304.486 44.2394C305.898 38.5707 308.139 32.9215 307.934 27.121C307.68 20.4025 306.815 13.4342 299.301 10.0994C298.524 9.75259 297.992 8.84927 297.246 8.10233L297.133 5.06053ZM137.06 30.5295C142.108 33.6251 143.587 38.6492 144.808 44.0591C145.814 48.6821 147.931 52.9906 150.975 56.6123C153.758 59.7958 156.366 63.5358 160.97 64.9664C162.044 67.1929 164.373 68.2337 166.277 69.7864C172.879 75.1866 178.104 82.0031 183.142 88.7118C190.007 97.8521 195.887 107.744 203.294 116.538C203.677 116.966 203.935 117.491 204.04 118.056C204.455 122.211 207.155 125.898 206.481 130.263C206.463 130.461 206.486 130.661 206.548 130.85C206.61 131.04 206.71 131.215 206.842 131.365C206.973 131.514 207.133 131.636 207.313 131.722C207.493 131.808 207.689 131.856 207.888 131.864V131.893C208.61 127.206 207.453 122.983 205.705 118.881C203.83 114.467 202.478 109.853 199.744 105.791C191.345 93.3107 182.351 81.3182 171.917 70.4348C169.715 68.1351 168.465 64.786 166.029 62.8672C160.746 58.717 158.665 53.4046 158.519 47.0084C158.47 44.03 156.805 42.0131 154.432 40.6362C149.003 37.482 143.295 34.7626 138.798 30.1973C138.412 29.8117 137.758 29.6946 137.06 30.5295ZM309.013 -7.94084C312.646 -11.8762 316.269 -13.9757 320.653 -14.3566C324.52 -14.6885 326.888 -12.555 328.597 -9.02015C330.077 -5.96856 332.244 -3.23391 333.63 -0.0798027C334.231 1.38983 335.223 2.74236 334.095 5.45206C331.629 1.69733 329.154 -1.32492 327.479 -4.76715C323.768 -12.384 320.121 -13.4532 313.354 -8.15076L309.013 -7.94084ZM163.46 82.4659C171.121 87.5 175.765 95.3372 181.468 102.114C188.743 110.675 194.483 120.565 203.638 128.193C197.982 116.312 170.118 84.481 163.46 82.4659ZM111.631 121.416C113.467 120.781 114.317 122.45 115.796 122.768C122.143 124.125 128.032 125.98 133.193 130.653C140.02 137.011 148.765 140.925 158.055 141.777C159.452 141.855 159.876 143.08 160.824 143.461L160.804 143.509C171.063 143.455 180.55 140.491 190.378 140.174C188.952 139.086 187.171 138.569 185.384 138.724C179.437 139.262 173.48 138.734 167.547 138.983C156.132 139.471 145.341 137.753 136.01 130.766C131.152 127.119 126.445 123.427 120.898 120.693C117.324 118.935 114.736 119.57 111.631 121.416ZM142.186 162.732C144.74 163.792 147.714 163.172 149.359 165.852C155.419 163.194 162.898 166.125 167.729 160.23C163.991 162.444 159.671 163.476 155.335 163.187C150.951 162.913 146.556 162.884 142.186 162.732ZM283.715 33.8883C283.709 33.8853 283.703 33.8835 283.697 33.8807C283.698 33.8783 283.7 33.8761 283.701 33.8738L283.715 33.8883ZM142.299 107.925C144.724 110.679 183.48 127.953 187.772 128.466C186.566 127.397 146.196 109.097 142.348 107.876L142.299 107.925ZM93.7949 114.145C95.6403 117.904 99.1396 119.335 102.435 121.049L102.798 120.336L93.7949 114.145ZM46.1688 139.057C52.3502 139.946 58.2484 142.222 63.4245 145.711C58.8842 141.078 51.141 137.987 46.1688 139.057ZM120.19 -11.6718C117.749 -6.30093 119.604 -3.53733 123.955 -0.15369C124.399 0.759264 123.096 1.52584 123.955 2.77556C125.454 3.88389 125.8 5.91078 125.912 7.54645C129.984 13.308 134.589 18.2935 135.273 25.432L136.504 20.2951C146.122 23.3128 153.866 29.402 162.614 33.8385C159.443 25.3236 153.665 18.8653 147.206 12.8346C142.997 8.89921 137.636 7.09219 132.67 4.52882C127.704 1.96555 123.291 -0.876126 123.178 -7.32558C123.178 -9.27864 121.684 -10.4804 120.19 -11.6718ZM88.8438 21.5208C82.6818 27.9171 75.3431 32.8242 69.8354 39.7088C70.4995 42.2475 72.0027 44.1518 73.3503 46.3586C75.7965 43.014 71.9253 41.8177 71.481 39.6059C72.7164 36.9842 75.9337 37.379 77.5742 35.3674C80.5038 31.774 84.0783 29.6064 88.9998 31.0419C89.6751 31.188 90.3794 31.1162 91.0113 30.8368C94.2388 29.4648 97.3004 30.2312 100.367 31.403C105.078 33.2438 109.79 35.0744 114.785 37.0323C113.813 35.3775 111.773 35.2892 111.319 33.5658C111.939 33.2976 112.744 34.0151 113.164 33.1266C113.406 31.9142 111.935 31.5014 111.896 30.0413C112.407 30.0747 112.915 30.1394 113.418 30.236C122.68 32.9166 130.229 38.444 137.339 44.6841C139.091 46.2318 140.585 48.116 143.178 48.4627C143.29 33.2438 132.557 26.8574 119.584 22.5656C116.186 21.4427 112.377 21.2667 108.847 20.2267C106.764 19.495 104.508 19.4151 102.378 19.9975C98.0127 21.3989 93.4116 21.9167 88.8438 21.5208ZM65.7337 63.7214C60.4262 67.2906 63.976 75.0689 58.9713 78.8627C58.8394 80.6254 58.7414 82.2269 58.5998 83.8235C57.9437 89.7975 59.157 95.8283 62.0718 101.084C65.2521 106.709 70.7932 109.166 77.4596 107.589C66.7391 94.6109 61.6264 80.2283 65.7337 63.7214ZM44.5136 46.3876C39.592 50.3327 39.6165 55.5917 39.9388 61.1284C43.2492 62.4858 45.6076 60.9382 47.5167 58.6287C51.4472 53.878 56.1346 51.1238 62.5503 52.5886C64.4544 53.194 65.4599 54.9719 66.7487 56.2609C67.8425 56.378 67.8479 54.5569 69.3175 55.2941L68.4488 59.8351C74.01 55.5238 72.4962 55.602 78.7703 60.1672C80.9821 61.7736 82.7451 64.141 85.5527 64.7123C90.0244 65.5258 94.3289 66.6877 98.1784 69.2325C93.8248 64.4766 87.4266 62.0885 83.8339 56.1877C82.5108 55.1965 80.4356 55.9239 78.7951 54.8598C77.3254 53.2241 76.3389 50.9682 73.6486 50.3872C71.6224 51.3588 69.1668 52.0662 67.3164 50.3333C63.9766 47.1986 59.7421 46.1099 55.7237 44.5328C51.7055 42.956 48.0094 43.5461 44.5136 46.3876ZM100.396 -13.7413C98.3792 -19.537 101.861 -24.493 107.139 -23.7948C110.815 -23.3114 114.38 -21.9932 118.11 -22.4814C118.335 -20.4309 117.275 -20.2012 116.211 -20.2109C114.607 -20.1443 113 -20.2606 111.421 -20.5576C103.712 -22.4277 102.442 -21.705 100.396 -13.7413Z" fill="#9866CA"/>
</g>
</svg>
